<svg viewBox="0 0 1400 360" xmlns="http://www.w3.org/2000/svg" class="v22-fw-diagram" aria-label="DBiz Transformation Assembly — Exploded View">
<defs>
<pattern id="v22-fw-ex-dot" patternUnits="userSpaceOnUse" width="14" height="14">
<circle cx="1" cy="1" r="0.6" fill="rgba(240,123,47,0.14)">
</circle>
</pattern>
<pattern id="v22-fw-disc-grid" patternUnits="userSpaceOnUse" width="14" height="14">
<path d="M 14 0 L 0 0 0 14" fill="none" stroke="rgba(255,255,255,0.14)" stroke-width="0.6">
</path>
</pattern>
<filter id="v22-fw-halo-blur" x="-30%" y="-30%" width="160%" height="160%">
<feGaussianBlur stdDeviation="14">
</feGaussianBlur>
</filter>
<radialGradient id="v22-fw-disc-halo">
<stop offset="0%" stop-color="var(--v22-accent)" stop-opacity="0.85">
</stop>
<stop offset="35%" stop-color="var(--v22-accent)" stop-opacity="0.45">
</stop>
<stop offset="70%" stop-color="var(--v22-accent)" stop-opacity="0.15">
</stop>
<stop offset="100%" stop-color="var(--v22-accent)" stop-opacity="0">
</stop>
</radialGradient>
</defs>
<rect x="8" y="8" width="1384" height="344" fill="url(#v22-fw-ex-dot)">
</rect>
<line x1="80" y1="200" x2="1320" y2="200" stroke="rgba(240,123,47,0.5)" stroke-width="1">
</line>
<line x1="80" y1="200" x2="80" y2="192" stroke="rgba(240,123,47,0.5)" stroke-width="1">
</line>
<line x1="80" y1="200" x2="80" y2="208" stroke="rgba(240,123,47,0.5)" stroke-width="1">
</line>
<line x1="1320" y1="200" x2="1320" y2="192" stroke="rgba(240,123,47,0.5)" stroke-width="1">
</line>
<line x1="1320" y1="200" x2="1320" y2="208" stroke="rgba(240,123,47,0.5)" stroke-width="1">
</line>
<g class="v22-fw-stack-layer " style="--layer-index:0;transform-origin:100px 200px;cursor:pointer">
<rect x="2" y="102" width="196" height="196" fill="var(--v22-accent)" fill-opacity="0.35" filter="url(#v22-fw-halo-blur)" class="v22-fw-disc-halo" style="animation-delay:0s">
</rect>
<rect x="16" y="116" width="168" height="168" stroke="rgba(255,255,255,0.22)" stroke-width="0.8" stroke-dasharray="4 3" fill="none">
</rect>
<rect x="22" y="122" width="156" height="156" stroke="rgba(255,255,255,0.16)" stroke-width="0.6" fill="none">
</rect>
<rect x="30" y="130" width="140" height="140" stroke="rgba(255,255,255,0.12)" stroke-width="0.4" stroke-dasharray="1.5 2" fill="none">
</rect>
<rect x="31" y="131" width="138" height="138" fill="url(#v22-fw-disc-grid)">
</rect>
<g>
<animateTransform attributeName="transform" type="rotate" from="0 100 200" to="360 100 200" dur="45s" repeatCount="indefinite">
</animateTransform>
<g>
<circle cx="100" cy="200" r="48" stroke="rgba(255,255,255,0.38)" stroke-width="0.8" stroke-dasharray="3 2" fill="none">
</circle>
<circle cx="100" cy="200" r="34" stroke="rgba(255,255,255,0.38)" stroke-width="1" fill="none">
</circle>
<circle cx="100" cy="200" r="20" stroke="var(--v22-accent)" stroke-width="1.2" fill="none">
</circle>
<circle cx="100" cy="200" r="8" stroke="var(--v22-accent)" stroke-width="1" fill="none">
</circle>
<line x1="42" y1="200" x2="58" y2="200" stroke="rgba(255,255,255,0.38)" stroke-width="0.8">
</line>
<line x1="142" y1="200" x2="158" y2="200" stroke="rgba(255,255,255,0.38)" stroke-width="0.8">
</line>
<line x1="100" y1="142" x2="100" y2="158" stroke="rgba(255,255,255,0.38)" stroke-width="0.8">
</line>
<line x1="100" y1="242" x2="100" y2="258" stroke="rgba(255,255,255,0.38)" stroke-width="0.8">
</line>
<circle cx="100" cy="200" r="3" fill="var(--v22-accent)">
</circle>
</g>
</g>
<circle cx="100" cy="200" r="2.5" fill="var(--v22-accent)">
</circle>
<text x="86" y="100" font-family="var(--font-mono)" font-size="10" font-weight="500" fill="rgba(255,255,255,0.5)" text-anchor="end" letter-spacing="2">L01</text>
<text x="100" y="308" font-family="var(--font-mono)" font-size="10" font-weight="500" fill="#ffffff" text-anchor="middle" letter-spacing="2.5">STRATEGY</text>
<line x1="100" y1="316" x2="100" y2="356" stroke="rgba(255,255,255,0.22)" stroke-width="0.8" stroke-dasharray="3 3" class="v22-fw-stack-connector">
</line>
<circle cx="100" cy="356" r="2.8" fill="var(--v22-accent)" class="v22-fw-stack-dot">
</circle>
</g>
<g class="v22-fw-stack-layer " style="--layer-index:1;transform-origin:300px 200px;cursor:pointer">
<rect x="202" y="102" width="196" height="196" fill="var(--v22-accent)" fill-opacity="0.35" filter="url(#v22-fw-halo-blur)" class="v22-fw-disc-halo" style="animation-delay:1.4s">
</rect>
<rect x="216" y="116" width="168" height="168" stroke="rgba(255,255,255,0.22)" stroke-width="0.8" stroke-dasharray="4 3" fill="none">
</rect>
<rect x="222" y="122" width="156" height="156" stroke="rgba(255,255,255,0.16)" stroke-width="0.6" fill="none">
</rect>
<rect x="230" y="130" width="140" height="140" stroke="rgba(255,255,255,0.12)" stroke-width="0.4" stroke-dasharray="1.5 2" fill="none">
</rect>
<rect x="231" y="131" width="138" height="138" fill="url(#v22-fw-disc-grid)">
</rect>
<g>
<animateTransform attributeName="transform" type="rotate" from="360 300 200" to="0 300 200" dur="45s" repeatCount="indefinite">
</animateTransform>
<g>
<polygon points="300,154 339.836,177 339.836,223 300,246 260.164,223 260.164,177" stroke="rgba(255,255,255,0.38)" stroke-width="0.8" stroke-dasharray="3 2" fill="none">
</polygon>
<polygon points="300,168 327.712,184 327.712,216 300,232 272.288,216 272.288,184" stroke="rgba(255,255,255,0.38)" stroke-width="1" fill="none">
</polygon>
<polygon points="300,182 315.588,191 315.588,209 300,218 284.412,209 284.412,191" stroke="var(--v22-accent)" stroke-width="1.3" fill="none">
</polygon>
<circle cx="300" cy="200" r="3" fill="var(--v22-accent)">
</circle>
</g>
</g>
<circle cx="300" cy="200" r="2.5" fill="var(--v22-accent)">
</circle>
<text x="286" y="100" font-family="var(--font-mono)" font-size="10" font-weight="500" fill="rgba(255,255,255,0.5)" text-anchor="end" letter-spacing="2">L02</text>
<text x="300" y="308" font-family="var(--font-mono)" font-size="10" font-weight="500" fill="#ffffff" text-anchor="middle" letter-spacing="2.5">ARCHITECTURE</text>
<line x1="300" y1="316" x2="300" y2="356" stroke="rgba(255,255,255,0.22)" stroke-width="0.8" stroke-dasharray="3 3" class="v22-fw-stack-connector">
</line>
<circle cx="300" cy="356" r="2.8" fill="var(--v22-accent)" class="v22-fw-stack-dot">
</circle>
</g>
<g class="v22-fw-stack-layer " style="--layer-index:2;transform-origin:500px 200px;cursor:pointer">
<rect x="402" y="102" width="196" height="196" fill="var(--v22-accent)" fill-opacity="0.35" filter="url(#v22-fw-halo-blur)" class="v22-fw-disc-halo" style="animation-delay:2.8s">
</rect>
<rect x="416" y="116" width="168" height="168" stroke="rgba(255,255,255,0.22)" stroke-width="0.8" stroke-dasharray="4 3" fill="none">
</rect>
<rect x="422" y="122" width="156" height="156" stroke="rgba(255,255,255,0.16)" stroke-width="0.6" fill="none">
</rect>
<rect x="430" y="130" width="140" height="140" stroke="rgba(255,255,255,0.12)" stroke-width="0.4" stroke-dasharray="1.5 2" fill="none">
</rect>
<rect x="431" y="131" width="138" height="138" fill="url(#v22-fw-disc-grid)">
</rect>
<g>
<animateTransform attributeName="transform" type="rotate" from="0 500 200" to="360 500 200" dur="45s" repeatCount="indefinite">
</animateTransform>
<g>
<path d="M 456 218 L 500 198 L 544 218 L 500 238 Z" stroke="rgba(255,255,255,0.38)" stroke-width="1" fill="none">
</path>
<path d="M 466 206 L 500 188 L 534 206 L 500 224 Z" stroke="rgba(255,255,255,0.38)" stroke-width="1" fill="none">
</path>
<path d="M 476 194 L 500 178 L 524 194 L 500 210 Z" stroke="var(--v22-accent)" stroke-width="1.3" fill="none">
</path>
<line x1="500" y1="178" x2="500" y2="238" stroke="rgba(255,255,255,0.38)" stroke-width="0.6" stroke-dasharray="2 2">
</line>
<circle cx="500" cy="186" r="2.5" fill="var(--v22-accent)">
</circle>
</g>
</g>
<circle cx="500" cy="200" r="2.5" fill="var(--v22-accent)">
</circle>
<text x="486" y="100" font-family="var(--font-mono)" font-size="10" font-weight="500" fill="rgba(255,255,255,0.5)" text-anchor="end" letter-spacing="2">L03</text>
<text x="500" y="308" font-family="var(--font-mono)" font-size="10" font-weight="500" fill="#ffffff" text-anchor="middle" letter-spacing="2.5">CLOUD</text>
<line x1="500" y1="316" x2="500" y2="356" stroke="rgba(255,255,255,0.22)" stroke-width="0.8" stroke-dasharray="3 3" class="v22-fw-stack-connector">
</line>
<circle cx="500" cy="356" r="2.8" fill="var(--v22-accent)" class="v22-fw-stack-dot">
</circle>
</g>
<g class="v22-fw-stack-layer " style="--layer-index:3;transform-origin:700px 200px;cursor:pointer">
<rect x="602" y="102" width="196" height="196" fill="var(--v22-accent)" fill-opacity="0.35" filter="url(#v22-fw-halo-blur)" class="v22-fw-disc-halo" style="animation-delay:4.199999999999999s">
</rect>
<rect x="616" y="116" width="168" height="168" stroke="rgba(255,255,255,0.22)" stroke-width="0.8" stroke-dasharray="4 3" fill="none">
</rect>
<rect x="622" y="122" width="156" height="156" stroke="rgba(255,255,255,0.16)" stroke-width="0.6" fill="none">
</rect>
<rect x="630" y="130" width="140" height="140" stroke="rgba(255,255,255,0.12)" stroke-width="0.4" stroke-dasharray="1.5 2" fill="none">
</rect>
<rect x="631" y="131" width="138" height="138" fill="url(#v22-fw-disc-grid)">
</rect>
<g>
<animateTransform attributeName="transform" type="rotate" from="360 700 200" to="0 700 200" dur="45s" repeatCount="indefinite">
</animateTransform>
<g>
<circle cx="700" cy="200" r="32" stroke="rgba(255,255,255,0.38)" stroke-width="1" fill="none">
</circle>
<line x1="732" y1="200" x2="744" y2="200" stroke="rgba(255,255,255,0.38)" stroke-width="2">
</line>
<line x1="727.7128" y1="216" x2="738.1051" y2="222" stroke="rgba(255,255,255,0.38)" stroke-width="2">
</line>
<line x1="716" y1="227.7128" x2="722" y2="238.1051" stroke="rgba(255,255,255,0.38)" stroke-width="2">
</line>
<line x1="700" y1="232" x2="700" y2="244" stroke="rgba(255,255,255,0.38)" stroke-width="2">
</line>
<line x1="684" y1="227.7128" x2="678" y2="238.1051" stroke="rgba(255,255,255,0.38)" stroke-width="2">
</line>
<line x1="672.2872" y1="216" x2="661.8949" y2="222" stroke="rgba(255,255,255,0.38)" stroke-width="2">
</line>
<line x1="668" y1="200" x2="656" y2="200" stroke="rgba(255,255,255,0.38)" stroke-width="2">
</line>
<line x1="672.2872" y1="184" x2="661.8949" y2="178" stroke="rgba(255,255,255,0.38)" stroke-width="2">
</line>
<line x1="684" y1="172.2872" x2="678" y2="161.8949" stroke="rgba(255,255,255,0.38)" stroke-width="2">
</line>
<line x1="700" y1="168" x2="700" y2="156" stroke="rgba(255,255,255,0.38)" stroke-width="2">
</line>
<line x1="716" y1="172.2872" x2="722" y2="161.8949" stroke="rgba(255,255,255,0.38)" stroke-width="2">
</line>
<line x1="727.7128" y1="184" x2="738.1051" y2="178" stroke="rgba(255,255,255,0.38)" stroke-width="2">
</line>
<circle cx="700" cy="200" r="44" stroke="rgba(255,255,255,0.38)" stroke-width="0.6" stroke-dasharray="3 2" fill="none">
</circle>
<circle cx="700" cy="200" r="22" stroke="var(--v22-accent)" stroke-width="1.2" fill="none">
</circle>
<circle cx="700" cy="200" r="10" stroke="var(--v22-accent)" stroke-width="1" fill="none">
</circle>
<circle cx="700" cy="200" r="3" fill="var(--v22-accent)">
</circle>
</g>
</g>
<circle cx="700" cy="200" r="2.5" fill="var(--v22-accent)">
</circle>
<text x="686" y="100" font-family="var(--font-mono)" font-size="10" font-weight="500" fill="rgba(255,255,255,0.5)" text-anchor="end" letter-spacing="2">L04</text>
<text x="700" y="308" font-family="var(--font-mono)" font-size="10" font-weight="500" fill="#ffffff" text-anchor="middle" letter-spacing="2.5">DEVELOPMENT</text>
<line x1="700" y1="316" x2="700" y2="356" stroke="rgba(255,255,255,0.22)" stroke-width="0.8" stroke-dasharray="3 3" class="v22-fw-stack-connector">
</line>
<circle cx="700" cy="356" r="2.8" fill="var(--v22-accent)" class="v22-fw-stack-dot">
</circle>
</g>
<g class="v22-fw-stack-layer " style="--layer-index:4;transform-origin:900px 200px;cursor:pointer">
<rect x="802" y="102" width="196" height="196" fill="var(--v22-accent)" fill-opacity="0.35" filter="url(#v22-fw-halo-blur)" class="v22-fw-disc-halo" style="animation-delay:5.6s">
</rect>
<rect x="816" y="116" width="168" height="168" stroke="rgba(255,255,255,0.22)" stroke-width="0.8" stroke-dasharray="4 3" fill="none">
</rect>
<rect x="822" y="122" width="156" height="156" stroke="rgba(255,255,255,0.16)" stroke-width="0.6" fill="none">
</rect>
<rect x="830" y="130" width="140" height="140" stroke="rgba(255,255,255,0.12)" stroke-width="0.4" stroke-dasharray="1.5 2" fill="none">
</rect>
<rect x="831" y="131" width="138" height="138" fill="url(#v22-fw-disc-grid)">
</rect>
<g>
<animateTransform attributeName="transform" type="rotate" from="0 900 200" to="360 900 200" dur="45s" repeatCount="indefinite">
</animateTransform>
<g>
<circle cx="884" cy="200" r="24" stroke="rgba(255,255,255,0.38)" stroke-width="1.1" fill="none">
</circle>
<circle cx="884" cy="200" r="16" stroke="rgba(255,255,255,0.38)" stroke-width="0.6" stroke-dasharray="2 2" fill="none">
</circle>
<circle cx="884" cy="200" r="2" fill="rgba(255,255,255,0.38)">
</circle>
<circle cx="916" cy="200" r="24" stroke="var(--v22-accent)" stroke-width="1.3" fill="none">
</circle>
<circle cx="916" cy="200" r="16" stroke="var(--v22-accent)" stroke-width="0.6" stroke-dasharray="2 2" fill="none">
</circle>
<circle cx="916" cy="200" r="2" fill="var(--v22-accent)">
</circle>
<circle cx="900" cy="200" r="7" fill="var(--v22-accent)" fill-opacity="0.18" stroke="var(--v22-accent)" stroke-width="1.3">
</circle>
<circle cx="900" cy="200" r="2.5" fill="var(--v22-accent)">
</circle>
<circle cx="900" cy="168" r="1.6" fill="var(--v22-accent)" opacity="0.5">
</circle>
<circle cx="900" cy="232" r="1.6" fill="var(--v22-accent)" opacity="0.5">
</circle>
</g>
</g>
<circle cx="900" cy="200" r="2.5" fill="var(--v22-accent)">
</circle>
<text x="886" y="100" font-family="var(--font-mono)" font-size="10" font-weight="500" fill="rgba(255,255,255,0.5)" text-anchor="end" letter-spacing="2">L05</text>
<text x="900" y="308" font-family="var(--font-mono)" font-size="10" font-weight="500" fill="#ffffff" text-anchor="middle" letter-spacing="2.5">PRODUCTIVITY</text>
<line x1="900" y1="316" x2="900" y2="356" stroke="rgba(255,255,255,0.22)" stroke-width="0.8" stroke-dasharray="3 3" class="v22-fw-stack-connector">
</line>
<circle cx="900" cy="356" r="2.8" fill="var(--v22-accent)" class="v22-fw-stack-dot">
</circle>
</g>
<g class="v22-fw-stack-layer " style="--layer-index:5;transform-origin:1100px 200px;cursor:pointer">
<rect x="1002" y="102" width="196" height="196" fill="var(--v22-accent)" fill-opacity="0.35" filter="url(#v22-fw-halo-blur)" class="v22-fw-disc-halo" style="animation-delay:7s">
</rect>
<rect x="1016" y="116" width="168" height="168" stroke="rgba(255,255,255,0.22)" stroke-width="0.8" stroke-dasharray="4 3" fill="none">
</rect>
<rect x="1022" y="122" width="156" height="156" stroke="rgba(255,255,255,0.16)" stroke-width="0.6" fill="none">
</rect>
<rect x="1030" y="130" width="140" height="140" stroke="rgba(255,255,255,0.12)" stroke-width="0.4" stroke-dasharray="1.5 2" fill="none">
</rect>
<rect x="1031" y="131" width="138" height="138" fill="url(#v22-fw-disc-grid)">
</rect>
<g>
<animateTransform attributeName="transform" type="rotate" from="360 1100 200" to="0 1100 200" dur="45s" repeatCount="indefinite">
</animateTransform>
<g>
<g>
<line x1="1100" y1="200" x2="1100" y2="162" stroke="rgba(255,255,255,0.38)" stroke-width="0.8" stroke-dasharray="2 2">
</line>
<circle cx="1100" cy="162" r="4.5" fill="var(--v22-accent)" opacity="0.85">
</circle>
</g>
<g>
<line x1="1100" y1="200" x2="1132.909" y2="181" stroke="rgba(255,255,255,0.38)" stroke-width="0.8" stroke-dasharray="2 2">
</line>
<circle cx="1132.909" cy="181" r="4.5" fill="var(--v22-accent)" opacity="0.85">
</circle>
</g>
<g>
<line x1="1100" y1="200" x2="1132.909" y2="219" stroke="rgba(255,255,255,0.38)" stroke-width="0.8" stroke-dasharray="2 2">
</line>
<circle cx="1132.909" cy="219" r="4.5" fill="var(--v22-accent)" opacity="0.85">
</circle>
</g>
<g>
<line x1="1100" y1="200" x2="1100" y2="238" stroke="rgba(255,255,255,0.38)" stroke-width="0.8" stroke-dasharray="2 2">
</line>
<circle cx="1100" cy="238" r="4.5" fill="var(--v22-accent)" opacity="0.85">
</circle>
</g>
<g>
<line x1="1100" y1="200" x2="1067.091" y2="219" stroke="rgba(255,255,255,0.38)" stroke-width="0.8" stroke-dasharray="2 2">
</line>
<circle cx="1067.091" cy="219" r="4.5" fill="var(--v22-accent)" opacity="0.85">
</circle>
</g>
<g>
<line x1="1100" y1="200" x2="1067.091" y2="181" stroke="rgba(255,255,255,0.38)" stroke-width="0.8" stroke-dasharray="2 2">
</line>
<circle cx="1067.091" cy="181" r="4.5" fill="var(--v22-accent)" opacity="0.85">
</circle>
</g>
<circle cx="1100" cy="200" r="12" stroke="var(--v22-accent)" stroke-width="1.5" fill="var(--v22-accent)" fill-opacity="0.15">
</circle>
<circle cx="1100" cy="200" r="3.5" fill="var(--v22-accent)">
</circle>
</g>
</g>
<circle cx="1100" cy="200" r="2.5" fill="var(--v22-accent)">
</circle>
<text x="1086" y="100" font-family="var(--font-mono)" font-size="10" font-weight="500" fill="rgba(255,255,255,0.5)" text-anchor="end" letter-spacing="2">L06</text>
<text x="1100" y="308" font-family="var(--font-mono)" font-size="10" font-weight="500" fill="#ffffff" text-anchor="middle" letter-spacing="2.5">ORCHESTRATION</text>
<line x1="1100" y1="316" x2="1100" y2="356" stroke="rgba(255,255,255,0.22)" stroke-width="0.8" stroke-dasharray="3 3" class="v22-fw-stack-connector">
</line>
<circle cx="1100" cy="356" r="2.8" fill="var(--v22-accent)" class="v22-fw-stack-dot">
</circle>
</g>
<g class="v22-fw-stack-layer " style="--layer-index:6;transform-origin:1300px 200px;cursor:pointer">
<rect x="1202" y="102" width="196" height="196" fill="var(--v22-accent)" fill-opacity="0.35" filter="url(#v22-fw-halo-blur)" class="v22-fw-disc-halo" style="animation-delay:8.399999999999999s">
</rect>
<rect x="1216" y="116" width="168" height="168" stroke="rgba(255,255,255,0.22)" stroke-width="0.8" stroke-dasharray="4 3" fill="none">
</rect>
<rect x="1222" y="122" width="156" height="156" stroke="rgba(255,255,255,0.16)" stroke-width="0.6" fill="none">
</rect>
<rect x="1230" y="130" width="140" height="140" stroke="rgba(255,255,255,0.12)" stroke-width="0.4" stroke-dasharray="1.5 2" fill="none">
</rect>
<rect x="1231" y="131" width="138" height="138" fill="url(#v22-fw-disc-grid)">
</rect>
<g>
<animateTransform attributeName="transform" type="rotate" from="0 1300 200" to="360 1300 200" dur="45s" repeatCount="indefinite">
</animateTransform>
<g>
<polygon points="1300,152 1341.568,176 1341.568,224 1300,248 1258.432,224 1258.432,176" stroke="rgba(255,255,255,0.38)" stroke-width="1" fill="none">
</polygon>
<polygon points="1300,176 1320.784,188 1320.784,212 1300,224 1279.216,212 1279.216,188" stroke="var(--v22-accent)" stroke-width="1.2" fill="none">
</polygon>
<circle cx="1300" cy="164" r="2.2" fill="var(--v22-accent)">
</circle>
<circle cx="1331.1769" cy="182" r="2.2" fill="var(--v22-accent)">
</circle>
<circle cx="1331.1769" cy="218" r="2.2" fill="var(--v22-accent)">
</circle>
<circle cx="1300" cy="236" r="2.2" fill="var(--v22-accent)">
</circle>
<circle cx="1268.8231" cy="218" r="2.2" fill="var(--v22-accent)">
</circle>
<circle cx="1268.8231" cy="182" r="2.2" fill="var(--v22-accent)">
</circle>
<line x1="1300" y1="200" x2="1312" y2="179.2154" stroke="rgba(255,255,255,0.38)" stroke-width="0.5" stroke-dasharray="1.5 1.5">
</line>
<line x1="1300" y1="200" x2="1324" y2="200" stroke="rgba(255,255,255,0.38)" stroke-width="0.5" stroke-dasharray="1.5 1.5">
</line>
<line x1="1300" y1="200" x2="1312" y2="220.7846" stroke="rgba(255,255,255,0.38)" stroke-width="0.5" stroke-dasharray="1.5 1.5">
</line>
<line x1="1300" y1="200" x2="1288" y2="220.7846" stroke="rgba(255,255,255,0.38)" stroke-width="0.5" stroke-dasharray="1.5 1.5">
</line>
<line x1="1300" y1="200" x2="1276" y2="200" stroke="rgba(255,255,255,0.38)" stroke-width="0.5" stroke-dasharray="1.5 1.5">
</line>
<line x1="1300" y1="200" x2="1288" y2="179.2154" stroke="rgba(255,255,255,0.38)" stroke-width="0.5" stroke-dasharray="1.5 1.5">
</line>
<circle cx="1300" cy="200" r="3" fill="var(--v22-accent)">
</circle>
</g>
</g>
<circle cx="1300" cy="200" r="2.5" fill="var(--v22-accent)">
</circle>
<text x="1286" y="100" font-family="var(--font-mono)" font-size="10" font-weight="500" fill="rgba(255,255,255,0.5)" text-anchor="end" letter-spacing="2">L07</text>
<text x="1300" y="308" font-family="var(--font-mono)" font-size="10" font-weight="500" fill="#ffffff" text-anchor="middle" letter-spacing="2.5">DATA &amp; INSIGHTS</text>
<line x1="1300" y1="316" x2="1300" y2="356" stroke="rgba(255,255,255,0.22)" stroke-width="0.8" stroke-dasharray="3 3" class="v22-fw-stack-connector">
</line>
<circle cx="1300" cy="356" r="2.8" fill="var(--v22-accent)" class="v22-fw-stack-dot">
</circle>
</g>
</svg>
