<svg viewBox="0 0 160 160" xmlns="http://www.w3.org/2000/svg" class="v22-fw-mini-disc" aria-hidden="true">
<defs>
<pattern id="v22-mini-grid-6" patternUnits="userSpaceOnUse" width="12" height="12">
<path d="M 12 0 L 0 0 0 12" fill="none" stroke="rgba(255,255,255,0.14)" stroke-width="0.6">
</path>
</pattern>
</defs>
<rect x="20" y="20" width="120" height="120" stroke="rgba(255,255,255,0.22)" stroke-width="0.8" stroke-dasharray="4 3" fill="none">
</rect>
<rect x="26" y="26" width="108" height="108" stroke="rgba(255,255,255,0.16)" stroke-width="0.6" fill="none">
</rect>
<rect x="33" y="33" width="94" height="94" stroke="rgba(255,255,255,0.12)" stroke-width="0.4" stroke-dasharray="1.5 2" fill="none">
</rect>
<rect x="34" y="34" width="92" height="92" fill="url(#v22-mini-grid-6)">
</rect>
<g>
<polygon points="80,32 121.568,56 121.568,104 80,128 38.432,104 38.432,56" stroke="rgba(255,255,255,0.38)" stroke-width="1" fill="none">
</polygon>
<polygon points="80,56 100.78399999999999,68 100.78399999999999,92 80,104 59.216,92 59.216,68" stroke="var(--v22-accent)" stroke-width="1.2" fill="none">
</polygon>
<circle cx="80" cy="44" r="2.2" fill="var(--v22-accent)">
</circle>
<circle cx="111.1769" cy="62" r="2.2" fill="var(--v22-accent)">
</circle>
<circle cx="111.1769" cy="98" r="2.2" fill="var(--v22-accent)">
</circle>
<circle cx="80" cy="116" r="2.2" fill="var(--v22-accent)">
</circle>
<circle cx="48.8231" cy="98" r="2.2" fill="var(--v22-accent)">
</circle>
<circle cx="48.8231" cy="62" r="2.2" fill="var(--v22-accent)">
</circle>
<line x1="80" y1="80" x2="92" y2="59.2154" stroke="rgba(255,255,255,0.38)" stroke-width="0.5" stroke-dasharray="1.5 1.5">
</line>
<line x1="80" y1="80" x2="104" y2="80" stroke="rgba(255,255,255,0.38)" stroke-width="0.5" stroke-dasharray="1.5 1.5">
</line>
<line x1="80" y1="80" x2="92" y2="100.7846" stroke="rgba(255,255,255,0.38)" stroke-width="0.5" stroke-dasharray="1.5 1.5">
</line>
<line x1="80" y1="80" x2="68" y2="100.7846" stroke="rgba(255,255,255,0.38)" stroke-width="0.5" stroke-dasharray="1.5 1.5">
</line>
<line x1="80" y1="80" x2="56" y2="80" stroke="rgba(255,255,255,0.38)" stroke-width="0.5" stroke-dasharray="1.5 1.5">
</line>
<line x1="80" y1="80" x2="68" y2="59.2154" stroke="rgba(255,255,255,0.38)" stroke-width="0.5" stroke-dasharray="1.5 1.5">
</line>
<circle cx="80" cy="80" r="3" fill="var(--v22-accent)">
</circle>
</g>
</svg>
