<svg viewBox="0 0 160 160" xmlns="http://www.w3.org/2000/svg" class="v22-fw-mini-disc" aria-hidden="true">
<defs>
<pattern id="v22-mini-grid-5" patternUnits="userSpaceOnUse" width="12" height="12">
<path d="M 12 0 L 0 0 0 12" fill="none" stroke="rgba(255,255,255,0.14)" stroke-width="0.6">
</path>
</pattern>
</defs>
<rect x="20" y="20" width="120" height="120" stroke="rgba(255,255,255,0.22)" stroke-width="0.8" stroke-dasharray="4 3" fill="none">
</rect>
<rect x="26" y="26" width="108" height="108" stroke="rgba(255,255,255,0.16)" stroke-width="0.6" fill="none">
</rect>
<rect x="33" y="33" width="94" height="94" stroke="rgba(255,255,255,0.12)" stroke-width="0.4" stroke-dasharray="1.5 2" fill="none">
</rect>
<rect x="34" y="34" width="92" height="92" fill="url(#v22-mini-grid-5)">
</rect>
<g>
<g>
<line x1="80" y1="80" x2="80" y2="42" stroke="rgba(255,255,255,0.38)" stroke-width="0.8" stroke-dasharray="2 2">
</line>
<circle cx="80" cy="42" r="4.5" fill="var(--v22-accent)" opacity="0.85">
</circle>
</g>
<g>
<line x1="80" y1="80" x2="112.909" y2="61" stroke="rgba(255,255,255,0.38)" stroke-width="0.8" stroke-dasharray="2 2">
</line>
<circle cx="112.909" cy="61" r="4.5" fill="var(--v22-accent)" opacity="0.85">
</circle>
</g>
<g>
<line x1="80" y1="80" x2="112.909" y2="99" stroke="rgba(255,255,255,0.38)" stroke-width="0.8" stroke-dasharray="2 2">
</line>
<circle cx="112.909" cy="99" r="4.5" fill="var(--v22-accent)" opacity="0.85">
</circle>
</g>
<g>
<line x1="80" y1="80" x2="80" y2="118" stroke="rgba(255,255,255,0.38)" stroke-width="0.8" stroke-dasharray="2 2">
</line>
<circle cx="80" cy="118" r="4.5" fill="var(--v22-accent)" opacity="0.85">
</circle>
</g>
<g>
<line x1="80" y1="80" x2="47.091" y2="99" stroke="rgba(255,255,255,0.38)" stroke-width="0.8" stroke-dasharray="2 2">
</line>
<circle cx="47.091" cy="99" r="4.5" fill="var(--v22-accent)" opacity="0.85">
</circle>
</g>
<g>
<line x1="80" y1="80" x2="47.091" y2="61" stroke="rgba(255,255,255,0.38)" stroke-width="0.8" stroke-dasharray="2 2">
</line>
<circle cx="47.091" cy="61" r="4.5" fill="var(--v22-accent)" opacity="0.85">
</circle>
</g>
<circle cx="80" cy="80" r="12" stroke="var(--v22-accent)" stroke-width="1.5" fill="var(--v22-accent)" fill-opacity="0.15">
</circle>
<circle cx="80" cy="80" r="3.5" fill="var(--v22-accent)">
</circle>
</g>
</svg>
